<?xml version="1.0" encoding="utf-8"?>
<!DOCTYPE svg PUBLIC "-//W3C//DTD SVG 1.1//EN" "http://www.w3.org/Graphics/SVG/1.1/DTD/svg11.dtd">
<svg version="1.1" 
  xmlns="http://www.w3.org/2000/svg" 
  xmlns:xlink="http://www.w3.org/1999/xlink" id="svg-go-logo" width="100px" height="35px" viewBox="0 0 100 35">
  <g stroke="none" fill="none" fill-rule="evenodd">
    <path fill="#FF5A5A" d="M7.47621162,10.380722 C5.55286356,10.380722 3.98898687,11.9175811 3.98898687,13.8062045 C3.98898687,15.6948278 5.55286356,17.2312543 7.47621162,17.2312543 C9.39911915,17.2312543 10.9634364,15.6948278 10.9634364,13.8062045 C10.9634364,11.9175811 9.39911915,10.380722 7.47621162,10.380722 M7.47621162,21.1482548 C3.35374457,21.1482548 0,17.8551706 0,13.8062045 C0,9.75767097 3.35374457,6.4632888 7.47621162,6.4632888 C11.5982381,6.4632888 14.9515422,9.75767097 14.9515422,13.8062045 C14.9515422,17.8551706 11.5982381,21.1482548 7.47621162,21.1482548"></path>
    <path fill="#FF5A5A" d="M7.47621162,23.8464118 C5.55286356,23.8464118 3.98898687,25.3832709 3.98898687,27.2718942 C3.98898687,29.1605176 5.55286356,30.6965114 7.47621162,30.6965114 C9.39911915,30.6965114 10.9634364,29.1605176 10.9634364,27.2718942 C10.9634364,25.3832709 9.39911915,23.8464118 7.47621162,23.8464118 M7.47621162,34.6139446 C3.35374457,34.6139446 0,31.3208604 0,27.2718942 C0,23.2229281 3.35374457,19.9289786 7.47621162,19.9289786 C11.5982381,19.9289786 14.9515422,23.2229281 14.9515422,27.2718942 C14.9515422,31.3208604 11.5982381,34.6139446 7.47621162,34.6139446"></path>
    <path fill="#FF5A5A" d="M21.7969168,10.380722 C19.8735687,10.380722 18.308811,11.9175811 18.308811,13.8062045 C18.308811,15.6948278 19.8735687,17.2312543 21.7969168,17.2312543 C23.7193838,17.2312543 25.2841415,15.6948278 25.2841415,13.8062045 C25.2841415,11.9175811 23.7193838,10.380722 21.7969168,10.380722 M21.7969168,21.1482548 C17.6744497,21.1482548 14.3207052,17.8551706 14.3207052,13.8062045 C14.3207052,9.75767097 17.6744497,6.4632888 21.7969168,6.4632888 C25.9185028,6.4632888 29.2718068,9.75767097 29.2718068,13.8062045 C29.2718068,17.8551706 25.9185028,21.1482548 21.7969168,21.1482548"></path>
    <path fill="#284154" d="M35.0718069,20.5152523 L31.3114544,20.5152523 L31.3114544,0.411040592 L35.0718069,0.411040592 L35.0718069,7.99149445 C35.9766528,6.93663449 37.503525,6.49227798 38.8317189,6.49227798 C42.3665207,6.49227798 44.0066089,8.90789863 44.0066089,11.9063316 L44.0066089,20.5152523 L40.2453753,20.5152523 L40.2453753,12.5458242 C40.2453753,11.0184839 39.4823797,9.82430281 37.6731286,9.82430281 C36.0898686,9.82430281 35.1572695,10.9903601 35.0718069,12.4895765 L35.0718069,20.5152523"></path>
    <path fill="#284154" d="M55.5158602,12.1287262 C55.4594726,10.7683982 54.5546267,9.43576129 52.405728,9.43576129 C50.4550672,9.43576129 49.3806178,10.8791628 49.2960363,12.1287262 L55.5158602,12.1287262 Z M59.0215872,16.5995498 C58.3149792,18.9597881 56.1096928,20.9319176 52.6889879,20.9319176 C48.8718072,20.9319176 45.50749,18.2380874 45.50749,13.6283753 C45.50749,9.26918168 48.7872257,6.43646299 52.3493403,6.43646299 C56.6466973,6.43646299 59.2198251,9.13029323 59.2198251,13.517178 C59.2198251,14.0450407 59.1629969,14.6001618 59.1629969,14.6555441 L49.2110143,14.6555441 C49.2960363,16.461094 50.8511024,17.765607 52.7167412,17.765607 C54.4696047,17.765607 55.4308382,16.9050178 55.8832611,15.6831456 L59.0215872,16.5995498 Z"></path>
    <path fill="#284154" d="M64.670486,20.5152523 L60.9101335,20.5152523 L60.9101335,6.85312835 L64.5572701,6.85312835 L64.5572701,8.54704826 C65.4052878,7.13047258 67.0731292,6.49227798 68.5718077,6.49227798 C72.0207064,6.49227798 73.6044069,8.90789863 73.6044069,11.9063316 L73.6044069,20.5152523 L69.8444949,20.5152523 L69.8444949,12.5458242 C69.8444949,11.0184839 69.0806182,9.82430281 67.2709266,9.82430281 C65.631279,9.82430281 64.670486,11.0738662 64.670486,12.6565888 L64.670486,20.5152523"></path>
    <path fill="#284154" d="M84.4832617,10.5183124 C84.0594732,10.4348063 83.6916318,10.4075478 83.3528652,10.4075478 C81.4303982,10.4075478 79.7621163,11.3235193 79.7621163,14.2674353 L79.7621163,20.5148196 L76.0017638,20.5148196 L76.0017638,6.85269567 L79.6489004,6.85269567 L79.6489004,8.8797748 C80.4973586,7.07509027 82.4198256,6.74193105 83.6074908,6.74193105 C83.9180635,6.74193105 84.2008829,6.76962221 84.4832617,6.79731336 L84.4832617,10.5183124"></path>
    <path fill="#284154" d="M99.8074912,20.2595418 C99.8074912,24.84113 96.1317201,27.2844418 92.3431738,27.2844418 C89.1198257,27.2844418 86.1511032,25.5355722 85.2180635,22.2026821 L88.6674028,20.9816752 C89.1484601,23.1195189 90.7312795,24.0636143 92.484143,24.0636143 C94.4920725,24.0636143 96.0185043,22.897557 96.0185043,20.5373187 L96.0185043,18.5102395 C95.1986805,19.8424437 93.5585923,20.6480833 92.0039668,20.6480833 C89.0348037,20.6480833 86.2074909,18.7594599 86.2074909,14.9553874 L86.2074909,6.7916886 L90.0528654,6.7916886 L90.0528654,14.4560813 C90.0528654,16.2330746 90.9854645,17.4549469 92.82335,17.4549469 C94.7744514,17.4549469 95.9616761,15.9825562 95.9616761,13.6508744 L95.9616761,6.7916886 L99.8074912,6.7916886 L99.8074912,20.2595418"></path>
  </g>
</svg>